<svg width="24" height="24" viewBox="0 0 24 24" fill="none" xmlns="http://www.w3.org/2000/svg">
<g clip-path="url(#clip0_70_651)">
<circle cx="12" cy="12" r="12" fill="#131513"/>
<path d="M19.7662 15.5357L19.8887 15.5007L20.2036 15.5707L20.3261 15.7632C20.3436 15.8157 20.3436 15.8857 20.3436 15.9731C20.3436 16.1831 20.2911 16.3581 20.2036 16.4805C20.1686 16.5505 20.1161 16.5855 20.0637 16.603L19.7487 16.7605C19.7312 16.778 19.6787 16.778 19.6262 16.778C19.3463 16.778 19.0663 16.533 19.0663 16.2356C19.1013 15.7632 19.3288 15.5357 19.7662 15.5357Z" fill="#F3F3F3"/>
<path d="M19.7956 13.7335L19.5507 14.136L19.3932 14.3459L18.6059 15.4832L18.5534 15.5182C18.4834 15.5532 18.4134 15.6057 18.3259 15.9206L18.3084 15.8331C18.2734 15.8856 18.2384 15.9031 18.2209 15.9031L18.2734 15.9381C17.941 16.3755 17.3461 16.9529 16.8737 17.0229L16.6287 16.9879C16.5412 16.9879 16.4713 16.8479 16.4188 16.8479C16.4188 16.8129 16.4363 16.7954 16.4538 16.7954C16.4538 16.7255 16.4363 16.6905 16.3838 16.6905H16.2963C16.2963 16.708 16.3663 16.7954 16.3838 16.7954C16.3663 16.8129 16.3488 16.8304 16.3313 16.8304L16.2788 16.7779C16.0163 16.638 15.8414 16.1131 15.8414 15.6757C15.8414 15.2207 15.9639 14.4859 16.1913 13.4886C16.4363 12.4738 16.5587 11.8789 16.5587 11.6864C16.5587 11.6339 16.5587 11.6164 16.5412 11.6164C16.0863 11.8789 15.4914 12.7887 15.3865 12.8937L15.299 13.0687C15.299 13.0512 15.2815 13.0337 15.2465 13.0337C15.159 13.1911 15.124 13.2786 15.1065 13.2786L15.0715 13.3311C15.0715 13.3486 15.019 13.4711 14.8966 13.6636L14.7041 13.996L14.3542 14.6609L14.3367 14.7133L14.3017 14.7483C14.2842 14.7658 14.2492 14.7833 14.2317 14.7833C14.2492 14.8008 14.2492 14.8358 14.2492 14.9058C14.0217 15.3782 13.8993 15.6932 13.8468 15.8506L13.6193 16.568C13.6018 16.6905 13.4268 17.1629 13.3744 17.2329C13.3569 17.2154 13.3219 17.2154 13.2869 17.2154C13.2344 17.2154 13.1994 17.2329 13.1819 17.2853L13.1469 17.2504L13.0069 17.3203L12.9544 17.3028V17.2329L12.9194 17.0579L12.9019 16.9704H12.797C12.6745 16.9704 12.5695 16.9004 12.482 16.743V16.673C12.482 16.568 12.5345 16.3405 12.657 16.0081L12.867 15.4132C13.1819 14.1535 13.3394 13.2961 13.3394 12.8237C13.3394 12.5263 13.3219 12.2813 13.2694 12.0889C12.9194 12.2813 12.587 12.6487 12.2721 13.1736C11.9571 13.681 11.6247 14.3459 11.2923 15.1333C10.9598 15.9206 10.7849 16.358 10.7324 16.4455C10.4699 16.5505 10.7849 16.8654 10.3299 16.8654L10.2949 16.8129C10.2949 16.8479 10.2775 16.8654 10.26 16.8654C10.19 16.8654 10.0325 16.743 9.91002 16.743C9.87503 16.743 9.84004 16.743 9.82254 16.7604C9.54259 16.708 9.68257 16.6905 9.61258 16.288C9.70006 15.8856 9.85753 15.2557 10.085 14.3809C10.3124 13.5061 10.4699 12.7887 10.5574 12.2463L10.6449 11.5115C10.6974 11.319 10.7499 11.0916 10.8373 11.0391H10.9598C11.4497 11.0391 11.7122 11.5465 11.7122 12.1064C11.7122 12.1938 11.6947 12.3338 11.6772 12.4913C11.7647 12.3513 11.8521 12.2113 11.9746 12.0539C12.2021 11.7214 12.7095 11.2315 13.1119 11.2315C14.1092 11.3015 14.2142 12.0714 14.1967 12.9112V13.0162C14.1967 13.0337 14.2142 13.0512 14.2492 13.0512C14.5116 12.4738 14.8966 11.9489 15.3865 11.459C15.8939 10.9691 16.3838 10.7241 16.8562 10.7241H16.9262C17.2936 10.7766 17.7835 11.2665 17.7835 11.6339C17.7835 11.9139 17.766 12.1413 17.7135 12.3163C17.7135 12.4388 17.6085 12.2988 17.626 12.2988C17.5735 12.2988 17.5036 12.3863 17.5036 12.4038V12.4388L17.4861 12.4738C17.4861 12.4913 17.4861 12.5088 17.5036 12.5263V12.5613C17.5735 12.5613 17.626 12.4213 17.6435 12.4213L17.661 12.4738C17.6785 12.4913 17.6785 12.5088 17.6785 12.5263C17.6785 12.5963 17.6085 12.6313 17.591 12.7187C17.6085 12.7362 17.6085 12.7537 17.6085 12.7887L17.5386 12.9637V13.0687C17.5386 13.1911 17.4336 13.4361 17.4336 13.4886V13.5761C17.3636 13.716 17.3286 13.8385 17.3286 13.9435V14.0835C17.2936 14.3109 17.1711 14.5734 17.2411 14.5384L17.1536 14.7133C17.1536 14.7308 17.1711 14.7658 17.1711 14.8183C17.1711 15.0108 17.0661 15.2382 17.0661 15.3607L16.9962 15.7281C16.9787 15.7281 16.9612 15.7631 16.9612 15.8331C16.9787 15.8331 16.9787 15.8506 16.9787 15.8856C16.9787 15.9731 16.9612 16.1481 16.9612 16.1656V16.2356C16.9612 16.2705 16.9787 16.3055 17.0137 16.323C17.1186 16.323 17.4336 15.9731 17.976 15.2557L20.0581 12.3338C20.0581 12.3863 20.0231 12.4913 19.9531 12.6487L19.8831 12.7537H20.0406L19.4107 13.681C19.6032 13.4886 19.9181 13.0687 19.9881 12.9987L20.0756 12.9637L19.6906 13.5061C19.7606 13.4536 19.8131 13.4186 19.8306 13.3836L19.9881 13.1736L20.0056 13.3311L19.8481 13.6636C19.8306 13.716 19.8131 13.7335 19.7956 13.7335ZM16.9787 14.2234C16.9087 14.2934 16.8737 14.3809 16.8737 14.4859L16.8562 14.5384C16.8562 14.5559 16.8562 14.5734 16.8387 14.6084V14.6609C16.9262 14.5734 16.9787 14.4159 16.9787 14.2234ZM16.9612 15.3957L17.0137 15.1333L16.9612 15.1158C16.9787 15.2033 16.9787 15.2557 16.9787 15.2732C16.9787 15.2907 16.9612 15.2907 16.9262 15.2907L16.8737 15.3782L16.8912 15.4307C16.9087 15.4307 16.9437 15.4132 16.9612 15.3957ZM15.2465 12.6837C15.264 12.6313 15.299 12.5963 15.3165 12.5613L15.194 12.6837C15.1765 12.7012 15.124 12.8062 15.0715 12.8237L15.0015 12.9462C15.019 12.9462 15.054 12.8937 15.0715 12.8937C15.0715 12.8587 15.089 12.8412 15.124 12.8237C15.194 12.7712 15.229 12.7187 15.2465 12.6837ZM16.6637 15.2033C16.7512 15.2033 16.7862 15.1858 16.7862 15.1683C16.7687 15.1158 16.7687 15.0808 16.7687 15.0633C16.6987 15.0633 16.6637 15.1158 16.6637 15.2033ZM14.2842 14.5209L14.3367 14.4859L14.3892 14.3459C14.3542 14.3634 14.3367 14.3809 14.3367 14.3984L14.2842 14.3809C14.2667 14.3984 14.2667 14.4159 14.2667 14.4334C14.2667 14.4509 14.2842 14.5034 14.2842 14.5209ZM14.4766 14.171L14.3542 14.2234C14.3542 14.2934 14.4242 14.2759 14.4417 14.2934L14.4591 14.3109C14.4591 14.2584 14.4766 14.1884 14.4766 14.171ZM11.9746 13.4886L11.8347 13.5761C11.8521 13.5936 11.8696 13.6286 11.8696 13.6461C11.9396 13.5761 11.9746 13.5236 11.9746 13.4886ZM18.7458 15.1683L18.8333 15.0108L18.9208 14.8708C18.7983 15.0108 18.7458 15.1158 18.7458 15.1683ZM17.4686 12.2113C17.5036 12.2113 17.5211 12.2288 17.5386 12.2813C17.5561 12.2813 17.5735 12.2463 17.5735 12.1763C17.5211 12.1763 17.4861 12.1938 17.4686 12.2113ZM14.0742 14.9933H13.9517L14.0217 15.0633C14.0567 15.0458 14.0742 15.0108 14.0742 14.9933ZM16.9087 13.9085C16.9612 13.856 16.9787 13.821 16.9787 13.8035C16.9787 13.786 16.9612 13.7685 16.9437 13.751C16.9262 13.8035 16.9262 13.891 16.9087 13.9085ZM16.7512 14.5909V14.7658C16.8037 14.6784 16.8037 14.5909 16.7512 14.5909ZM17.6435 12.1763V12.0714C17.626 12.0889 17.6085 12.1238 17.6085 12.1413V12.2288C17.626 12.2288 17.6435 12.2113 17.6435 12.1763ZM12.0621 13.3486L12.0096 13.3836C12.0446 13.3836 12.0621 13.3661 12.0621 13.3486Z" fill="#F3F3F3"/>
<path d="M9.26649 18.1251L9.44145 18.1426H9.51144C9.49394 18.2301 9.10902 18.2301 9.05653 18.2826L8.98654 18.2476C8.82907 18.2476 8.72409 18.2826 8.65411 18.3526C8.74159 18.3526 8.79408 18.3351 8.84657 18.3176C8.82907 18.3526 8.70659 18.4051 8.44415 18.4926C8.19919 18.5626 8.05922 18.5976 8.02423 18.5976C7.86676 18.65 7.55182 18.72 7.04441 18.7725C6.53701 18.8425 6.16958 18.8775 5.90713 18.8775C5.92463 18.895 6.0646 18.9125 6.36205 18.9125C6.37954 18.9125 6.44953 18.895 6.46703 18.895C6.6245 18.895 6.95693 18.8425 7.07941 18.8425L7.34186 18.7725C7.35935 18.7725 7.37685 18.79 7.39435 18.8075L7.42934 18.825C7.46433 18.825 7.6393 18.72 7.74428 18.72L8.49664 18.5451C8.49664 18.5801 7.76178 18.79 7.28937 18.86C6.85195 18.9475 6.39704 19 5.95962 19H5.88964C4.57739 18.93 4 18.3526 4 17.8102C4.03499 17.4253 4.38493 16.8829 4.47241 16.6729C6.0996 12.8762 7.27187 9.6043 8.00673 6.89233C8.02423 6.73486 8.11171 6.40242 8.12921 6.31494C8.1467 6.10498 8.28668 6 8.56662 6L8.72409 6.05249C8.84657 6.10498 8.91655 6.20996 8.91655 6.38493V6.45491C8.91655 6.5249 9.07402 6.80484 9.07402 6.89233L9.05653 7.22476C8.6716 9.67429 7.42934 13.2261 5.32974 17.8627C5.46972 17.8627 5.62719 17.9502 5.67968 17.9502C5.78466 17.9502 7.39435 17.6352 8.25168 17.5303C9.14401 17.3903 9.66891 17.3203 9.84388 17.3203H9.93136C10.0188 17.3203 10.2813 17.3553 10.4738 17.3553C10.5262 17.3553 10.6312 17.3203 10.6487 17.3203C10.7712 17.3203 10.8937 17.3728 10.9812 17.4953L10.9287 17.5653C10.9637 17.6352 11.0336 17.6702 11.1386 17.6702C11.0861 17.7227 11.0336 17.7577 11.0162 17.7577L10.7887 17.8452H10.7187C10.6312 17.8452 10.5612 17.8977 10.3688 17.8977C10.3513 17.8977 10.1938 17.8802 10.1238 17.8802C9.91386 17.8802 9.79139 17.9327 9.77389 18.0202C9.77389 18.0727 9.7214 18.0902 9.59892 18.0902C9.44145 18.0902 9.31898 18.1076 9.26649 18.1251ZM5.95962 15.6931C5.95962 15.6406 5.99462 15.5881 6.01211 15.5356V15.5007C6.02961 15.3782 6.02961 15.2907 6.04711 15.2382C5.95962 15.5007 5.87214 15.7281 5.76716 15.9206V15.9556C5.78466 15.9731 5.78466 15.9906 5.78466 16.0081C5.83715 15.9906 5.88964 15.8856 5.95962 15.6931ZM4.36743 17.1978L4.22746 17.4428C4.20996 17.4603 4.20996 17.4953 4.20996 17.5478C4.24495 17.5478 4.27995 17.5128 4.29744 17.4603C4.34993 17.3728 4.40242 17.3028 4.41992 17.2153C4.41992 17.1978 4.41992 17.1803 4.40242 17.1628C4.38493 17.1628 4.36743 17.1803 4.36743 17.1978ZM5.32974 16.393C5.31225 16.288 5.29475 16.218 5.29475 16.2005C5.27725 16.2705 5.24226 16.4105 5.24226 16.428C5.24226 16.4455 5.22476 16.4805 5.17227 16.498C5.22476 16.498 5.25976 16.5155 5.25976 16.5679L5.29475 16.4805C5.29475 16.4455 5.31225 16.4105 5.32974 16.393ZM5.08479 15.9906C5.08479 15.9381 5.06729 15.9031 5.0323 15.9031C5.0148 15.9031 4.99731 15.9206 4.99731 15.9381V16.0605C5.0498 16.0605 5.08479 16.043 5.08479 15.9906Z" fill="#F3F3F3"/>
</g>
<defs>
<clipPath id="clip0_70_651">
<rect width="24" height="24" fill="white"/>
</clipPath>
</defs>
</svg>
