<svg width="41" height="32" viewBox="0 0 41 32" fill="none" xmlns="http://www.w3.org/2000/svg">
<path d="M38.8092 23.4724L39.1106 23.3863L39.8859 23.5586L40.1873 24.0323C40.2304 24.1615 40.2304 24.3338 40.2304 24.5491C40.2304 25.066 40.1012 25.4967 39.8859 25.7981C39.7997 25.9704 39.6705 26.0565 39.5413 26.0996L38.7661 26.4872C38.723 26.5303 38.5938 26.5303 38.4646 26.5303C37.7755 26.5303 37.0864 25.9273 37.0864 25.1952C37.1726 24.0323 37.7325 23.4724 38.8092 23.4724Z" fill="#F3F3F3"/>
<path d="M38.8812 19.0363L38.2783 20.0269L37.8907 20.5437L35.9526 23.3431L35.8234 23.4293C35.6511 23.5154 35.4788 23.6446 35.2635 24.4199L35.2204 24.2045C35.1343 24.3337 35.0481 24.3768 35.0051 24.3768L35.1343 24.4629C34.316 25.5396 32.8517 26.9609 31.6888 27.1332L31.0858 27.0471C30.8705 27.0471 30.6982 26.7025 30.569 26.7025C30.569 26.6164 30.6121 26.5733 30.6552 26.5733C30.6552 26.401 30.6121 26.3149 30.4829 26.3149H30.2675C30.2675 26.358 30.4398 26.5733 30.4829 26.5733C30.4398 26.6164 30.3968 26.6594 30.3537 26.6594L30.2245 26.5302C29.5785 26.1857 29.1478 24.8936 29.1478 23.8169C29.1478 22.6971 29.4492 20.8882 30.0091 18.4333C30.6121 15.9353 30.9136 14.471 30.9136 13.9973C30.9136 13.868 30.9136 13.825 30.8705 13.825C29.7507 14.471 28.2864 16.7106 28.028 16.969L27.8127 17.3997C27.8127 17.3566 27.7696 17.3135 27.6834 17.3135C27.4681 17.7012 27.382 17.9165 27.3389 17.9165L27.2528 18.0457C27.2528 18.0888 27.1236 18.3903 26.8221 18.864L26.3483 19.6823L25.487 21.3189L25.4439 21.4481L25.3578 21.5343C25.3147 21.5773 25.2285 21.6204 25.1855 21.6204C25.2285 21.6635 25.2285 21.7496 25.2285 21.9219C24.6687 23.0847 24.3672 23.86 24.238 24.2476L23.6781 26.0134C23.635 26.3149 23.2043 27.4777 23.0751 27.65C23.0321 27.6069 22.9459 27.6069 22.8598 27.6069C22.7306 27.6069 22.6444 27.65 22.6014 27.7792L22.5152 27.6931L22.1707 27.8654L22.0415 27.8223V27.65L21.9554 27.2193L21.9123 27.004H21.6539C21.3524 27.004 21.094 26.8317 20.8786 26.4441V26.2718C20.8786 26.0134 21.0078 25.4535 21.3093 24.6352L21.8261 23.1709C22.6014 20.0699 22.989 17.9596 22.989 16.7967C22.989 16.0645 22.9459 15.4616 22.8167 14.9878C21.9554 15.4616 21.1371 16.366 20.3618 17.6581C19.5866 18.9071 18.7683 20.5437 17.95 22.4818C17.1317 24.4199 16.701 25.4966 16.5718 25.7119C15.9258 25.9703 16.701 26.7456 15.5812 26.7456L15.4951 26.6164C15.4951 26.7025 15.452 26.7456 15.409 26.7456C15.2367 26.7456 14.8491 26.4441 14.5476 26.4441C14.4615 26.4441 14.3753 26.4441 14.3323 26.4872C13.6432 26.358 13.9877 26.3149 13.8154 25.3243C14.0308 24.3337 14.4184 22.7833 14.9783 20.6298C15.5382 18.4764 15.9258 16.7106 16.1411 15.3755L16.3565 13.5666C16.4857 13.0928 16.6149 12.5329 16.8302 12.4037H17.1317C18.3376 12.4037 18.9836 13.6527 18.9836 15.0309C18.9836 15.2462 18.9406 15.5908 18.8975 15.9784C19.1128 15.6339 19.3282 15.2893 19.6297 14.9017C20.1895 14.0834 21.4385 12.8775 22.4291 12.8775C24.884 13.0497 25.1424 14.9448 25.0993 17.0121V17.2705C25.0993 17.3135 25.1424 17.3566 25.2285 17.3566C25.8746 15.9353 26.8221 14.6433 28.028 13.4374C29.277 12.2314 30.4829 11.6285 31.6457 11.6285H31.818C32.7224 11.7577 33.9284 12.9636 33.9284 13.868C33.9284 14.5571 33.8853 15.117 33.7561 15.5477C33.7561 15.8492 33.4977 15.5047 33.5407 15.5047C33.4115 15.5047 33.2393 15.72 33.2393 15.7631V15.8492L33.1962 15.9353C33.1962 15.9784 33.1962 16.0215 33.2393 16.0645V16.1507C33.4115 16.1507 33.5407 15.8061 33.5838 15.8061L33.6269 15.9353C33.67 15.9784 33.67 16.0215 33.67 16.0645C33.67 16.2368 33.4977 16.323 33.4546 16.5383C33.4977 16.5814 33.4977 16.6244 33.4977 16.7106L33.3254 17.1413V17.3997C33.3254 17.7012 33.067 18.3041 33.067 18.4333V18.6487C32.8947 18.9932 32.8086 19.2947 32.8086 19.5531V19.8977C32.7224 20.4576 32.421 21.1036 32.5932 21.0174L32.3779 21.4481C32.3779 21.4912 32.421 21.5773 32.421 21.7065C32.421 22.1803 32.1626 22.7402 32.1626 23.0417L31.9903 23.9461C31.9472 23.9461 31.9041 24.0322 31.9041 24.2045C31.9472 24.2045 31.9472 24.2476 31.9472 24.3337C31.9472 24.5491 31.9041 24.9798 31.9041 25.0228V25.1951C31.9041 25.2812 31.9472 25.3674 32.0334 25.4104C32.2918 25.4104 33.067 24.5491 34.4021 22.7833L39.5272 15.5908C39.5272 15.72 39.4411 15.9784 39.2688 16.366L39.0966 16.6244H39.4842L37.9337 18.9071C38.4075 18.4333 39.1827 17.3997 39.355 17.2274L39.5703 17.1413L38.6228 18.4764C38.7951 18.3472 38.9243 18.261 38.9674 18.1749L39.355 17.6581L39.398 18.0457L39.0104 18.864C38.9674 18.9932 38.9243 19.0363 38.8812 19.0363ZM31.9472 20.2422C31.7749 20.4145 31.6888 20.6298 31.6888 20.8882L31.6457 21.0174C31.6457 21.0605 31.6457 21.1036 31.6027 21.1897V21.3189C31.818 21.1036 31.9472 20.716 31.9472 20.2422ZM31.9041 23.1278L32.0334 22.4818L31.9041 22.4387C31.9472 22.6541 31.9472 22.7833 31.9472 22.8263C31.9472 22.8694 31.9041 22.8694 31.818 22.8694L31.6888 23.0847L31.7319 23.2139C31.7749 23.2139 31.8611 23.1709 31.9041 23.1278ZM27.6834 16.4522C27.7265 16.323 27.8127 16.2368 27.8557 16.1507L27.5542 16.4522C27.5112 16.4952 27.382 16.7536 27.2528 16.7967L27.0805 17.0982C27.1236 17.0982 27.2097 16.969 27.2528 16.969C27.2528 16.8829 27.2958 16.8398 27.382 16.7967C27.5542 16.6675 27.6404 16.5383 27.6834 16.4522ZM31.172 22.6541C31.3873 22.6541 31.4735 22.611 31.4735 22.5679C31.4304 22.4387 31.4304 22.3526 31.4304 22.3095C31.2581 22.3095 31.172 22.4387 31.172 22.6541ZM25.3147 20.9744L25.4439 20.8882L25.5731 20.5437C25.487 20.5868 25.4439 20.6298 25.4439 20.6729L25.3147 20.6298C25.2716 20.6729 25.2716 20.716 25.2716 20.759C25.2716 20.8021 25.3147 20.9313 25.3147 20.9744ZM25.7884 20.113L25.487 20.2422C25.487 20.4145 25.6592 20.3714 25.7023 20.4145L25.7454 20.4576C25.7454 20.3283 25.7884 20.1561 25.7884 20.113ZM19.6297 18.4333L19.2851 18.6487C19.3282 18.6917 19.3713 18.7779 19.3713 18.8209C19.5435 18.6487 19.6297 18.5195 19.6297 18.4333ZM36.2971 22.5679L36.5125 22.1803L36.7278 21.8357C36.4263 22.1803 36.2971 22.4387 36.2971 22.5679ZM33.1531 15.2893C33.2393 15.2893 33.2823 15.3324 33.3254 15.4616C33.3685 15.4616 33.4115 15.3755 33.4115 15.2032C33.2823 15.2032 33.1962 15.2462 33.1531 15.2893ZM24.7979 22.1372H24.4964L24.6687 22.3095C24.7548 22.2664 24.7979 22.1803 24.7979 22.1372ZM31.7749 19.467C31.9041 19.3378 31.9472 19.2516 31.9472 19.2086C31.9472 19.1655 31.9041 19.1224 31.8611 19.0794C31.818 19.2086 31.818 19.4239 31.7749 19.467ZM31.3873 21.1466V21.5773C31.5165 21.362 31.5165 21.1466 31.3873 21.1466ZM33.5838 15.2032V14.9448C33.5407 14.9878 33.4977 15.074 33.4977 15.117V15.3324C33.5407 15.3324 33.5838 15.2893 33.5838 15.2032ZM19.845 18.0888L19.7158 18.1749C19.8019 18.1749 19.845 18.1318 19.845 18.0888Z" fill="#F3F3F3"/>
<path d="M12.9636 29.8466L13.3943 29.8896H13.5665C13.5235 30.105 12.576 30.105 12.4468 30.2342L12.2745 30.148C11.8869 30.148 11.6285 30.2342 11.4562 30.4065C11.6715 30.4065 11.8007 30.3634 11.9299 30.3203C11.8869 30.4065 11.5854 30.5357 10.9394 30.751C10.3364 30.9233 9.99186 31.0094 9.90573 31.0094C9.51811 31.1386 8.74288 31.3109 7.4939 31.4401C6.24491 31.6124 5.34048 31.6985 4.69445 31.6985C4.73752 31.7416 5.08207 31.7847 5.81423 31.7847C5.8573 31.7847 6.02957 31.7416 6.07264 31.7416C6.46026 31.7416 7.27856 31.6124 7.58003 31.6124L8.22606 31.4401C8.26913 31.4401 8.3122 31.4832 8.35526 31.5262L8.4414 31.5693C8.52754 31.5693 8.95822 31.3109 9.21663 31.3109L11.0686 30.8802C11.0686 30.9664 9.2597 31.4832 8.09685 31.6555C7.02015 31.8708 5.90037 32 4.82366 32H4.65138C1.42126 31.8277 0 30.4065 0 29.0713C0.0861368 28.1238 0.947504 26.7887 1.16285 26.2719C5.1682 16.926 8.05379 8.87214 9.86266 2.1965C9.90573 1.80888 10.1211 0.990578 10.1641 0.775235C10.2072 0.258413 10.5518 0 11.2408 0L11.6285 0.129207C11.9299 0.258414 12.1022 0.516824 12.1022 0.94751V1.11979C12.1022 1.29206 12.4898 1.98116 12.4898 2.1965L12.4468 3.0148C11.4993 9.04442 8.4414 17.7873 3.2732 29.2005C3.61774 29.2005 4.00536 29.4159 4.13456 29.4159C4.39297 29.4159 8.35526 28.6406 10.4656 28.3822C12.6621 28.0377 13.9542 27.8654 14.3848 27.8654H14.6002C14.8155 27.8654 15.4615 27.9515 15.9353 27.9515C16.0645 27.9515 16.3229 27.8654 16.366 27.8654C16.6675 27.8654 16.9689 27.9946 17.1843 28.2961L17.0551 28.4684C17.1412 28.6406 17.3135 28.7268 17.5719 28.7268C17.4427 28.856 17.3135 28.9421 17.2704 28.9421L16.7105 29.1575H16.5383C16.3229 29.1575 16.1506 29.2867 15.6769 29.2867C15.6338 29.2867 15.2462 29.2436 15.0739 29.2436C14.5571 29.2436 14.2556 29.3728 14.2126 29.5882C14.2126 29.7174 14.0834 29.7604 13.7819 29.7604C13.3943 29.7604 13.0928 29.8035 12.9636 29.8466ZM4.82366 23.86C4.82366 23.7308 4.90979 23.6016 4.95286 23.4724V23.3863C4.99593 23.0848 4.99593 22.8694 5.039 22.7402C4.82366 23.3863 4.60832 23.9462 4.34991 24.4199V24.5061C4.39297 24.5491 4.39297 24.5922 4.39297 24.6353C4.52218 24.5922 4.65138 24.3338 4.82366 23.86ZM0.904436 27.5639L0.559889 28.1669C0.51682 28.21 0.51682 28.2961 0.51682 28.4253C0.602957 28.4253 0.689094 28.3392 0.732162 28.21C0.861367 27.9946 0.990573 27.8223 1.03364 27.607C1.03364 27.5639 1.03364 27.5209 0.990573 27.4778C0.947504 27.4778 0.904436 27.5209 0.904436 27.5639ZM3.2732 25.5828C3.23013 25.3244 3.18706 25.1521 3.18706 25.109C3.14399 25.2813 3.05785 25.6258 3.05785 25.6689C3.05785 25.712 3.01479 25.7981 2.88558 25.8412C3.01479 25.8412 3.10092 25.8843 3.10092 26.0135L3.18706 25.7981C3.18706 25.712 3.23013 25.6258 3.2732 25.5828ZM2.67024 24.5922C2.67024 24.463 2.62717 24.3769 2.54103 24.3769C2.49797 24.3769 2.4549 24.4199 2.4549 24.463V24.7645C2.5841 24.7645 2.67024 24.7214 2.67024 24.5922Z" fill="#F3F3F3"/>
</svg>
